HIERARCHY
ROOT Hips
{
	OFFSET 0.000000 0.000000 0.000000
	CHANNELS 6 Xposition Yposition Zposition Zrotation Yrotation Xrotation 
	JOINT LHipJoint
	{
		OFFSET 0.000000 0.000000 0.000000
		CHANNELS 3 Zrotation Yrotation Xrotation
		JOINT LeftUpLeg
		{
			OFFSET 1.363060 -1.794630 0.839290
			CHANNELS 3 Zrotation Yrotation Xrotation
			JOINT LeftLeg
			{
				OFFSET 2.448110 -6.726130 0.000000
				CHANNELS 3 Zrotation Yrotation Xrotation
				JOINT LeftFoot
				{
					OFFSET 2.562200 -7.039590 0.000000
					CHANNELS 3 Zrotation Yrotation Xrotation
					JOINT LeftToeBase
					{
						OFFSET 0.157640 -0.433110 2.322550
						CHANNELS 3 Zrotation Yrotation Xrotation
						End Site
						{
							OFFSET 0.000000 0.000000 0.000000
						}
					}
				}
			}
		}
	}
	JOINT RHipJoint
	{
		OFFSET 0.000000 0.000000 0.000000
		CHANNELS 3 Zrotation Yrotation Xrotation
		JOINT RightUpLeg
		{
			OFFSET -1.305520 -1.794630 0.839290
			CHANNELS 3 Zrotation Yrotation Xrotation
			JOINT RightLeg
			{
				OFFSET -2.542530 -6.985550 0.000000
				CHANNELS 3 Zrotation Yrotation Xrotation
				JOINT RightFoot
				{
					OFFSET -2.568260 -7.056230 0.000000
					CHANNELS 3 Zrotation Yrotation Xrotation
					JOINT RightToeBase
					{
						OFFSET -0.164730 -0.452590 2.363150
						CHANNELS 3 Zrotation Yrotation Xrotation
						End Site
						{
							OFFSET 0.000000 0.000000 0.000000
						}
					}
				}
			}
		}
	}
	JOINT LowerBack
	{
		OFFSET 0.000000 0.000000 0.000000
		CHANNELS 3 Zrotation Yrotation Xrotation
		JOINT Spine
		{
			OFFSET 0.028270 2.035590 -0.193380
			CHANNELS 3 Zrotation Yrotation Xrotation
			JOINT Spine1
			{
				OFFSET 0.056720 2.048850 -0.042750
				CHANNELS 3 Zrotation Yrotation Xrotation
				JOINT Neck
				{
					OFFSET 0.000000 0.000000 0.000000
					CHANNELS 3 Zrotation Yrotation Xrotation
					JOINT Neck1
					{
						OFFSET -0.054170 1.746240 0.172020
						CHANNELS 3 Zrotation Yrotation Xrotation
						JOINT Head
						{
							OFFSET 0.104070 1.761360 -0.123970
							CHANNELS 3 Zrotation Yrotation Xrotation
							End Site
							{
								OFFSET 0.000000 0.000000 0.000000
							}
						}
					}
				}
				JOINT LeftShoulder
				{
					OFFSET 0.000000 0.000000 0.000000
					CHANNELS 3 Zrotation Yrotation Xrotation
					JOINT LeftArm
					{
						OFFSET 3.362410 1.200890 -0.311210
						CHANNELS 3 Zrotation Yrotation Xrotation
						JOINT LeftForeArm
						{
							OFFSET 4.983000 -0.000000 -0.000000
							CHANNELS 3 Zrotation Yrotation Xrotation
							JOINT LeftHand
							{
								OFFSET 3.483560 -0.000000 -0.000000
								CHANNELS 3 Zrotation Yrotation Xrotation
								JOINT LeftFingerBase
								{
									OFFSET 0.000000 0.000000 0.000000
									CHANNELS 3 Zrotation Yrotation Xrotation
									JOINT LeftHandIndex1
									{
										OFFSET 0.715260 -0.000000 -0.000000
										CHANNELS 3 Zrotation Yrotation Xrotation
										End Site
										{
											OFFSET 0.000000 0.000000 0.000000
										}
									}
								}
								JOINT LThumb
								{
									OFFSET 0.000000 0.000000 0.000000
									CHANNELS 3 Zrotation Yrotation Xrotation
									End Site
									{
										OFFSET 0.000000 0.000000 0.000000
									}
								}
							}
						}
					}
				}
				JOINT RightShoulder
				{
					OFFSET 0.000000 0.000000 0.000000
					CHANNELS 3 Zrotation Yrotation Xrotation
					JOINT RightArm
					{
						OFFSET -3.136600 1.374050 -0.404650
						CHANNELS 3 Zrotation Yrotation Xrotation
						JOINT RightForeArm
						{
							OFFSET -5.241900 -0.000000 -0.000000
							CHANNELS 3 Zrotation Yrotation Xrotation
							JOINT RightHand
							{
								OFFSET -3.444170 -0.000000 -0.000000
								CHANNELS 3 Zrotation Yrotation Xrotation
								JOINT RightFingerBase
								{
									OFFSET 0.000000 0.000000 0.000000
									CHANNELS 3 Zrotation Yrotation Xrotation
									JOINT RightHandIndex1
									{
										OFFSET -0.622530 -0.000000 -0.000000
										CHANNELS 3 Zrotation Yrotation Xrotation
										End Site
										{
											OFFSET 0.000000 0.000000 0.000000
										}
									}
								}
								JOINT RThumb
								{
									OFFSET 0.000000 0.000000 0.000000
									CHANNELS 3 Zrotation Yrotation Xrotation
									End Site
									{
										OFFSET 0.000000 0.000000 0.000000
									}
								}
							}
						}
					}
				}
			}
		}
	}
}
MOTION
Frames: 8
Frame Time: 0.008333
0.533121 17.585000 -0.454824 -179.929519 9.439938 -173.396907 -3.451101 19.668652 4.853199 -15.407452 -4.854330 -12.823154 0.261873 0.016668 17.366910 21.725522 -5.203279 -8.046799 -4.702553 1.779493 -7.188732 -2.444292 -19.490990 -1.887876 22.062601 2.649407 -9.519384 -2.968219 2.069963 23.704712 -29.882382 17.123484 -10.925996 6.104600 -2.400145 -10.763837 4.799541 3.502566 3.020357 11.784323 2.906333 15.765039 -16.097971 -12.467886 -27.433087 -7.005416 4.572526 -14.191530 6.530017 4.237072 3.662947 -0.961277 0.590932 -12.236037 11.315814 25.594167 2.532961 -10.011465 -3.692504 13.711251 4.885563 -30.181742 -1.333399 2.824985 11.302140 -1.278752 2.800593 12.856504 0.000000 0.000000 0.000000 0.000000 0.000000 0.000000 0.000000 -22.883682 -38.611933 -10.252997 49.101940 34.330554 19.308794 -4.789433 9.102259 11.894113 0.245923 -0.143818 3.037850 0.915441 -8.774121 -0.000000 0.000000 0.000000 0.000000 0.000000 0.000000 0.000000 
0.532782 17.584700 -0.455611 -179.933358 9.427653 -173.394847 -3.453024 19.669728 4.851671 -15.410372 -4.852635 -12.822735 0.259934 0.012913 17.368575 21.723917 -5.215003 -8.049822 -4.703500 1.779552 -7.186311 -2.444524 -19.486338 -1.889987 22.056734 2.649415 -9.518017 -2.970711 2.063818 23.706868 -29.881816 17.114201 -10.936391 6.100992 -2.400044 -10.755402 4.806217 3.499465 3.027069 11.783166 2.903408 15.763211 -16.101981 -12.471376 -27.437256 -7.004884 4.580764 -14.188242 6.537203 4.244020 3.664528 -0.959559 0.588504 -12.236627 11.312347 25.586489 2.519842 -10.010865 -3.681204 13.685836 4.873860 -30.186911 -1.358770 2.821579 11.286091 -1.297058 2.801576 12.855464 0.000000 0.000000 0.000000 0.000000 0.000000 0.000000 0.000000 -22.885870 -38.613196 -10.249287 49.099659 34.335924 19.320276 -4.790193 9.095516 11.904514 0.242861 -0.143126 3.045734 0.913614 -8.774333 -0.000000 0.000000 0.000000 0.000000 0.000000 0.000000 0.000000 
0.532586 17.584550 -0.456399 -179.935388 9.417850 -173.393464 -3.453825 19.668216 4.850812 -15.413588 -4.855614 -12.821544 0.262738 0.011865 17.371563 21.739721 -5.215226 -8.050651 -4.699510 1.777264 -7.186488 -2.443651 -19.482588 -1.892909 22.054528 2.649459 -9.515897 -2.975313 2.057151 23.710548 -29.882992 17.102246 -10.937242 6.101060 -2.400122 -10.757515 4.808912 3.497451 3.032476 11.781811 2.901382 15.765276 -16.099814 -12.471652 -27.444483 -7.004216 4.584631 -14.186603 6.541875 4.247121 3.672610 -0.958515 0.586682 -12.233833 11.309287 25.584356 2.509409 -10.016220 -3.683353 13.675148 4.871620 -30.183895 -1.373154 2.828187 11.289315 -1.304496 2.810373 12.857129 0.000000 0.000000 0.000000 0.000000 0.000000 0.000000 0.000000 -22.881223 -38.615699 -10.248217 49.090473 34.343875 19.335327 -4.788612 9.093581 11.906591 0.245115 -0.156758 3.046266 0.916150 -8.776704 -0.000000 0.000000 0.000000 0.000000 0.000000 0.000000 0.000000 
0.532277 17.584550 -0.457259 -179.937858 9.402999 -173.390686 -3.455321 19.666120 4.849340 -15.415801 -4.857359 -12.821158 0.262463 0.008927 17.373485 21.736830 -5.221312 -8.049930 -4.700199 1.778106 -7.183561 -2.444266 -19.478161 -1.893934 22.050559 2.648694 -9.513383 -2.975292 2.053879 23.705582 -29.871040 17.092647 -10.930899 6.105440 -2.403486 -10.760521 4.814242 3.496709 3.038052 11.783638 2.900877 15.759413 -16.105554 -12.474774 -27.441086 -7.002276 4.584420 -14.184290 6.543484 4.246574 3.680380 -0.958235 0.585728 -12.230383 11.307666 25.582344 2.499944 -10.021812 -3.696595 13.672627 4.865939 -30.180626 -1.384016 2.832031 11.285566 -1.311481 2.815520 12.856568 0.000000 0.000000 0.000000 0.000000 0.000000 0.000000 0.000000 -22.886558 -38.616149 -10.239801 49.087350 34.342480 19.350347 -4.788602 9.086840 11.921501 0.239080 -0.145793 3.058583 0.911902 -8.775004 -0.000000 0.000000 0.000000 0.000000 0.000000 0.000000 0.000000 
0.531853 17.584700 -0.458339 -179.941505 9.387674 -173.390359 -3.456533 19.665992 4.847556 -15.420672 -4.855189 -12.816717 0.263010 0.006638 17.372038 21.751014 -5.227783 -8.049747 -4.696574 1.776369 -7.181529 -2.444665 -19.477694 -1.893476 22.045088 2.646804 -9.513548 -2.976079 2.048827 23.707271 -29.871352 17.085763 -10.929502 6.103746 -2.403655 -10.757137 4.821029 3.496634 3.040546 11.781754 2.900002 15.763516 -16.108858 -12.475727 -27.447874 -7.000515 4.581396 -14.181693 6.543835 4.243091 3.693723 -0.958477 0.584721 -12.225092 11.300028 25.592415 2.489141 -10.020408 -3.733379 13.690518 4.858874 -30.181857 -1.389952 2.836739 11.296424 -1.315687 2.819967 12.858703 0.000000 0.000000 0.000000 0.000000 0.000000 0.000000 0.000000 -22.882651 -38.625676 -10.236391 49.080045 34.350420 19.376143 -4.785053 9.074236 11.933038 0.239207 -0.154149 3.065282 0.913232 -8.776937 -0.000000 0.000000 0.000000 0.000000 0.000000 0.000000 0.000000 
0.531608 17.584850 -0.459291 -179.943443 9.378402 -173.387940 -3.457085 19.663142 4.847797 -15.422776 -4.856340 -12.812920 0.261733 0.003444 17.366616 21.747019 -5.229754 -8.046211 -4.696766 1.777876 -7.176765 -2.444691 -19.474563 -1.895354 22.041566 2.642498 -9.509602 -2.975569 2.045497 23.701306 -29.871496 17.077302 -10.925344 6.103584 -2.404070 -10.757069 4.823809 3.497785 3.044701 11.782483 2.901073 15.759380 -16.107516 -12.477346 -27.449074 -7.000154 4.582300 -14.178788 6.544403 4.243853 3.705360 -0.958138 0.585548 -12.219803 11.300460 25.589759 2.482285 -10.040690 -3.742038 13.687633 4.862026 -30.184839 -1.394148 2.842619 11.299137 -1.317767 2.826661 12.858085 0.000000 0.000000 0.000000 0.000000 0.000000 0.000000 0.000000 -22.881978 -38.627186 -10.236090 49.079179 34.354294 19.381655 -4.784598 9.068127 11.936379 0.235672 -0.143261 3.069186 0.910203 -8.775586 -0.000000 0.000000 0.000000 0.000000 0.000000 0.000000 0.000000 
0.531284 17.584850 -0.460134 -179.946249 9.366035 -173.385269 -3.457335 19.662455 4.845240 -15.427398 -4.855685 -12.810481 0.261395 -0.000434 17.365621 21.744411 -5.238109 -8.043823 -4.699059 1.778625 -7.176422 -2.443466 -19.471652 -1.896727 22.036167 2.641019 -9.509174 -2.976849 2.039867 23.700054 -29.876925 17.067231 -10.928383 6.100132 -2.402360 -10.753727 4.826182 3.496331 3.051698 11.775488 2.900107 15.747784 -16.098707 -12.474306 -27.453304 -7.000615 4.587399 -14.171674 6.546058 4.248014 3.718548 -0.957289 0.587431 -12.214126 11.305089 25.581440 2.469506 -10.066135 -3.742961 13.670021 4.847860 -30.220028 -1.423413 2.855178 11.374938 -1.341853 2.843113 12.868761 0.000000 0.000000 0.000000 0.000000 0.000000 0.000000 0.000000 -22.876913 -38.624463 -10.238000 49.077831 34.357128 19.377894 -4.786423 9.059835 11.948731 0.235289 -0.151525 3.076055 0.910679 -8.776586 -0.000000 0.000000 0.000000 0.000000 0.000000 0.000000 0.000000 
0.531099 17.585000 -0.461218 -179.947740 9.353417 -173.383725 -3.457999 19.661456 4.846166 -15.427499 -4.854261 -12.807509 0.259897 -0.003366 17.360893 21.753239 -5.243172 -8.038192 -4.697861 1.777130 -7.178514 -2.444416 -19.468999 -1.897344 22.031397 2.634988 -9.504460 -2.973950 2.038362 23.693903 -29.867294 17.065443 -10.927465 6.101965 -2.405015 -10.750705 4.829918 3.497921 3.053626 11.779999 2.901255 15.743197 -16.101278 -12.478913 -27.450829 -6.999692 4.587358 -14.167614 6.544720 4.247905 3.730519 -0.957219 0.589463 -12.207849 11.306344 25.578248 2.458200 -10.090873 -3.752994 13.662759 4.848883 -30.226865 -1.429547 2.855639 11.385947 -1.348455 2.845094 12.868456 0.000000 0.000000 0.000000 0.000000 0.000000 0.000000 0.000000 -22.881488 -38.625676 -10.233324 49.081343 34.351236 19.380606 -4.785578 9.067605 11.954314 0.232097 -0.150766 3.081177 0.908319 -8.775455 -0.000000 0.000000 0.000000 0.000000 0.000000 0.000000 0.000000 
